<?xml version="1.0" standalone="no"?>
<!DOCTYPE svg PUBLIC "-//W3C//DTD SVG 20010904//EN"
 "http://www.w3.org/TR/2001/REC-SVG-20010904/DTD/svg10.dtd">
<svg version="1.0" xmlns="http://www.w3.org/2000/svg"
 width="26.000000pt" height="24.000000pt" viewBox="0 0 1280.000000 1181.000000"
 preserveAspectRatio="xMidYMid meet">
<metadata>
Created by potrace 1.15, written by Peter Selinger 2001-2017
</metadata>
<g transform="translate(0.000000,1181.000000) scale(0.100000,-0.100000)"
fill="#000000" stroke="none">
<path d="M40.75.57,43.6,6.34a1,1,0,0,0,.76.55l6.38.93a1,1,0,0,1,.56,1.73L46.68,14a1,1,0,0,0-.29.9l1.09,6.35A1,1,0,0,1,46,22.37l-5.7-3a1,1,0,0,0-.94,0l-5.7,3a1,1,0,0,1-1.47-1.07l1.09-6.35A1,1,0,0,0,33,14l-4.61-4.5a1,1,0,0,1,.56-1.73l6.38-.93a1,1,0,0,0,.76-.55L38.93.57A1,1,0,0,1,40.75.57Z"/>
</g>
</svg>
