<svg width="48" height="48" fill="none" xmlns="http://www.w3.org/2000/svg"><path fill-rule="evenodd" clip-rule="evenodd" d="M24 0C10.745 0 0 10.745 0 24s10.745 24 24 24 24-10.745 24-24S37.255 0 24 0zm-.668 20.338l-.05-.83c-.152-2.153 1.174-4.119 3.273-4.881.772-.272 2.081-.306 2.938-.068.335.101.973.44 1.427.745l.822.56.907-.288c.503-.153 1.175-.407 1.477-.577.285-.152.537-.237.537-.186 0 .288-.621 1.271-1.141 1.813-.706.763-.504.83.923.322.856-.288.873-.288.705.034-.1.17-.621.763-1.175 1.305-.94.932-.99 1.034-.99 1.814 0 1.203-.571 3.711-1.142 5.084-1.058 2.576-3.324 5.237-5.59 6.576-3.19 1.881-7.437 2.356-11.013 1.254-1.192-.373-3.24-1.322-3.24-1.491 0-.051.621-.119 1.377-.136a9.452 9.452 0 004.499-1.254l.906-.542-1.04-.356c-1.478-.509-2.804-1.678-3.14-2.78-.1-.356-.067-.373.873-.373l.974-.017-.823-.39c-.974-.49-1.863-1.321-2.3-2.169-.319-.61-.722-2.152-.604-2.27.033-.052.386.05.789.186 1.158.423 1.31.322.638-.39-1.26-1.288-1.645-3.203-1.041-5.017l.285-.813 1.108 1.101c2.267 2.22 4.936 3.543 7.991 3.932l.84.102z" fill="#fff"/></svg>